<svg version="1.1" id="Layer_1" xmlns="http://www.w3.org/2000/svg" xmlns:xlink="http://www.w3.org/1999/xlink" x="0px" y="0px"
	 width="100%" viewBox="0 0 1667 1667" enable-background="new 0 0 1667 1667" xml:space="preserve">
<path fill="#4A1E60" opacity="1.000000" stroke="none" 
	d="
M1058.000000,1668.000000 
	C705.333435,1668.000000 353.166870,1668.000000 1.000236,1668.000000 
	C1.000157,1112.333618 1.000157,556.667236 1.000079,1.000609 
	C556.666199,1.000406 1112.332397,1.000406 1667.999023,1.000203 
	C1667.999268,556.666077 1667.999268,1112.332153 1667.999634,1667.999023 
	C1464.833374,1668.000000 1261.666626,1668.000000 1058.000000,1668.000000 
M791.108337,152.605713 
	C779.224121,163.789764 766.799683,174.457870 755.544983,186.243073 
	C691.107056,253.718506 647.260193,333.233215 619.036987,421.738037 
	C602.729126,472.877411 592.721313,525.272949 589.397949,578.820740 
	C588.089722,599.898499 587.590088,621.145447 588.621033,642.222473 
	C590.304321,676.636841 593.485107,710.979675 596.211426,745.338684 
	C596.504822,749.036621 595.469482,751.608582 592.979126,754.169861 
	C572.889343,774.831909 552.553040,795.268616 532.940247,816.376526 
	C510.166016,840.886780 487.559418,865.587891 465.785461,890.982544 
	C444.238312,916.112610 431.998566,945.228027 431.740997,978.982422 
	C431.451447,1016.925842 430.073181,1054.863525 430.024353,1092.804932 
	C430.000214,1111.587524 431.472778,1130.408081 433.039978,1149.146973 
	C434.695618,1168.943115 456.685272,1179.156860 473.274872,1168.413818 
	C521.632080,1137.098999 570.654236,1106.916504 622.832092,1082.246704 
	C636.779907,1075.651978 651.011902,1069.658447 666.086487,1062.956421 
	C668.909302,1070.286621 671.294556,1076.955322 674.032349,1083.476196 
	C677.887939,1092.659668 681.786316,1101.838501 686.092163,1110.814941 
	C688.658997,1116.166016 693.062927,1118.324707 699.458984,1118.306396 
	C775.121399,1118.088867 850.784729,1118.169067 926.447815,1118.164429 
	C941.600830,1118.163452 956.753845,1118.102417 971.906738,1118.136597 
	C977.425354,1118.149170 981.025208,1115.630615 982.927002,1110.486816 
	C985.578979,1103.313965 988.270325,1096.155396 990.983826,1089.005615 
	C993.696167,1081.858887 996.422729,1074.717285 999.210938,1067.599976 
	C1000.456299,1064.421021 1002.412781,1063.389893 1005.737244,1065.260620 
	C1008.914307,1067.048340 1012.367004,1068.343384 1015.686523,1069.881104 
	C1071.132568,1095.565552 1126.162231,1121.967041 1175.874146,1158.120361 
	C1182.780518,1163.142944 1190.730957,1167.116699 1198.736206,1170.160156 
	C1215.065796,1176.368408 1227.109619,1171.015259 1232.855957,1154.567993 
	C1235.594849,1146.728760 1236.571533,1137.995483 1236.836060,1129.619385 
	C1237.882202,1096.500000 1239.008667,1063.356934 1238.765625,1030.232422 
	C1238.599731,1007.628784 1236.841187,984.979675 1234.634644,962.464600 
	C1232.537109,941.063721 1222.333374,922.530518 1210.532959,905.024109 
	C1183.834351,865.415344 1149.923950,832.087341 1116.671997,798.212830 
	C1102.788208,784.069092 1088.731812,770.093811 1074.673218,756.123047 
	C1072.222412,753.687561 1071.457275,751.159607 1071.774048,747.682922 
	C1075.523071,706.536804 1077.782715,665.333069 1077.242310,623.978821 
	C1076.776123,588.291809 1074.336060,552.801514 1069.191895,517.478821 
	C1059.496826,450.904968 1040.246338,387.388184 1008.777222,327.769836 
	C976.928467,267.432312 938.331055,211.986618 888.701172,164.809738 
	C877.779114,154.427490 865.729431,145.026810 853.288818,136.502350 
	C839.971008,127.376755 825.557617,127.922722 812.016113,136.891006 
	C804.956116,141.566757 798.416809,147.028763 791.108337,152.605713 
M715.552612,1434.091797 
	C723.837280,1439.271729 731.902405,1437.624756 739.497864,1432.783813 
	C744.194580,1429.790527 748.384705,1426.002075 753.049011,1422.379028 
	C753.727417,1424.314453 754.408569,1426.165527 755.027405,1428.037231 
	C766.385925,1462.391479 779.549927,1495.980469 799.267944,1526.523071 
	C804.445251,1534.542358 810.714233,1542.179443 817.754761,1548.594971 
	C827.377625,1557.363647 838.137634,1557.228149 848.052551,1548.753174 
	C853.921387,1543.736694 859.185974,1537.683716 863.550720,1531.296143 
	C879.503357,1507.950317 891.101318,1482.346558 901.005981,1455.958008 
	C905.139404,1444.945312 908.925476,1433.802246 912.821594,1422.853394 
	C918.443604,1426.789185 923.552063,1431.082642 929.291504,1434.222656 
	C938.923157,1439.492188 947.780762,1438.130493 955.092651,1430.086426 
	C959.515869,1425.220215 963.572876,1419.692383 966.455811,1413.806152 
	C992.729858,1360.161499 998.465149,1304.336670 981.802490,1246.886841 
	C972.281616,1214.060669 953.549561,1187.605103 922.741882,1170.875000 
	C916.322510,1167.389160 909.664185,1165.378540 902.355042,1164.997070 
	C856.091614,1162.582520 809.826477,1162.408936 763.584290,1165.196045 
	C757.616455,1165.555908 751.304749,1167.091431 745.956177,1169.718628 
	C713.563660,1185.629639 694.810303,1212.898804 684.144226,1246.363037 
	C675.166016,1274.531982 673.262512,1303.500977 676.163330,1332.791260 
	C679.077454,1362.215210 686.355713,1390.486694 700.948669,1416.401245 
	C704.537292,1422.773926 710.201843,1427.977539 715.552612,1434.091797 
z"/>
<path fill="#BFFF00" opacity="1.000000" stroke="none" 
	d="
M791.375366,152.370682 
	C798.416809,147.028763 804.956116,141.566757 812.016113,136.891006 
	C825.557617,127.922722 839.971008,127.376755 853.288818,136.502350 
	C865.729431,145.026810 877.779114,154.427490 888.701172,164.809738 
	C938.331055,211.986618 976.928467,267.432312 1008.777222,327.769836 
	C1040.246338,387.388184 1059.496826,450.904968 1069.191895,517.478821 
	C1074.336060,552.801514 1076.776123,588.291809 1077.242310,623.978821 
	C1077.782715,665.333069 1075.523071,706.536804 1071.774048,747.682922 
	C1071.457275,751.159607 1072.222412,753.687561 1074.673218,756.123047 
	C1088.731812,770.093811 1102.788208,784.069092 1116.671997,798.212830 
	C1149.923950,832.087341 1183.834351,865.415344 1210.532959,905.024109 
	C1222.333374,922.530518 1232.537109,941.063721 1234.634644,962.464600 
	C1236.841187,984.979675 1238.599731,1007.628784 1238.765625,1030.232422 
	C1239.008667,1063.356934 1237.882202,1096.500000 1236.836060,1129.619385 
	C1236.571533,1137.995483 1235.594849,1146.728760 1232.855957,1154.567993 
	C1227.109619,1171.015259 1215.065796,1176.368408 1198.736206,1170.160156 
	C1190.730957,1167.116699 1182.780518,1163.142944 1175.874146,1158.120361 
	C1126.162231,1121.967041 1071.132568,1095.565552 1015.686523,1069.881104 
	C1012.367004,1068.343384 1008.914307,1067.048340 1005.737244,1065.260620 
	C1002.412781,1063.389893 1000.456299,1064.421021 999.210938,1067.599976 
	C996.422729,1074.717285 993.696167,1081.858887 990.983826,1089.005615 
	C988.270325,1096.155396 985.578979,1103.313965 982.927002,1110.486816 
	C981.025208,1115.630615 977.425354,1118.149170 971.906738,1118.136597 
	C956.753845,1118.102417 941.600830,1118.163452 926.447815,1118.164429 
	C850.784729,1118.169067 775.121399,1118.088867 699.458984,1118.306396 
	C693.062927,1118.324707 688.658997,1116.166016 686.092163,1110.814941 
	C681.786316,1101.838501 677.887939,1092.659668 674.032349,1083.476196 
	C671.294556,1076.955322 668.909302,1070.286621 666.086487,1062.956421 
	C651.011902,1069.658447 636.779907,1075.651978 622.832092,1082.246704 
	C570.654236,1106.916504 521.632080,1137.098999 473.274872,1168.413818 
	C456.685272,1179.156860 434.695618,1168.943115 433.039978,1149.146973 
	C431.472778,1130.408081 430.000214,1111.587524 430.024353,1092.804932 
	C430.073181,1054.863525 431.451447,1016.925842 431.740997,978.982422 
	C431.998566,945.228027 444.238312,916.112610 465.785461,890.982544 
	C487.559418,865.587891 510.166016,840.886780 532.940247,816.376526 
	C552.553040,795.268616 572.889343,774.831909 592.979126,754.169861 
	C595.469482,751.608582 596.504822,749.036621 596.211426,745.338684 
	C593.485107,710.979675 590.304321,676.636841 588.621033,642.222473 
	C587.590088,621.145447 588.089722,599.898499 589.397949,578.820740 
	C592.721313,525.272949 602.729126,472.877411 619.036987,421.738037 
	C647.260193,333.233215 691.107056,253.718506 755.544983,186.243073 
	C766.799683,174.457870 779.224121,163.789764 791.375366,152.370682 
M892.803589,457.700470 
	C868.643555,444.379761 842.918152,439.982178 815.638428,443.860046 
	C747.877563,453.492249 700.856873,521.294495 715.551758,588.311462 
	C729.587341,652.321716 788.973267,692.880493 854.029724,682.887634 
	C908.868042,674.464294 953.280518,625.098694 954.863770,569.772217 
	C956.266418,520.756165 935.350952,483.506165 892.803589,457.700470 
M1059.017700,829.604065 
	C1045.560791,890.470520 1032.103882,951.336975 1018.636719,1012.250061 
	C1075.871094,1033.050659 1128.453369,1061.975220 1180.000244,1094.926758 
	C1180.000244,1091.978760 1180.023315,1090.349121 1179.996582,1088.720215 
	C1179.724365,1072.071167 1179.423096,1055.422485 1179.171265,1038.772949 
	C1178.813721,1015.126709 1178.312622,991.480286 1178.248169,967.832947 
	C1178.225098,959.346497 1176.331055,951.485535 1171.606567,944.704041 
	C1163.628418,933.251953 1155.785400,921.547363 1146.489624,911.203308 
	C1124.126709,886.318420 1100.995483,862.122131 1078.073242,837.742981 
	C1073.750977,833.145996 1069.002563,828.943359 1064.349121,824.669556 
	C1063.500122,823.889832 1062.158203,823.646790 1060.769653,823.035278 
	C1060.118408,825.336731 1059.627441,827.071472 1059.017700,829.604065 
M649.000000,1011.214783 
	C648.883728,1010.396484 648.881042,1009.542236 648.634949,1008.765015 
	C632.197754,956.846619 619.776184,903.944580 609.806091,850.440491 
	C608.263367,842.161133 606.675110,833.890259 604.933594,824.695190 
	C602.873413,826.075745 601.414795,826.766174 600.319580,827.830505 
	C586.358154,841.398499 571.840210,854.459656 558.671082,868.761353 
	C539.622620,889.447937 521.395752,910.902283 503.150269,932.311951 
	C494.658752,942.276123 489.565399,954.023132 488.642273,967.255737 
	C487.889893,978.040283 486.902405,988.846436 486.935669,999.640259 
	C487.022919,1027.944946 487.614929,1056.248169 487.994171,1084.552002 
	C488.035034,1087.602295 487.999664,1090.653687 487.999664,1094.498047 
	C539.752014,1062.244019 591.762634,1032.403442 649.000000,1011.214783 
z"/>
<path fill="#BEFE01" opacity="1.000000" stroke="none" 
	d="
M715.232361,1433.905273 
	C710.201843,1427.977539 704.537292,1422.773926 700.948669,1416.401245 
	C686.355713,1390.486694 679.077454,1362.215210 676.163330,1332.791260 
	C673.262512,1303.500977 675.166016,1274.531982 684.144226,1246.363037 
	C694.810303,1212.898804 713.563660,1185.629639 745.956177,1169.718628 
	C751.304749,1167.091431 757.616455,1165.555908 763.584290,1165.196045 
	C809.826477,1162.408936 856.091614,1162.582520 902.355042,1164.997070 
	C909.664185,1165.378540 916.322510,1167.389160 922.741882,1170.875000 
	C953.549561,1187.605103 972.281616,1214.060669 981.802490,1246.886841 
	C998.465149,1304.336670 992.729858,1360.161499 966.455811,1413.806152 
	C963.572876,1419.692383 959.515869,1425.220215 955.092651,1430.086426 
	C947.780762,1438.130493 938.923157,1439.492188 929.291504,1434.222656 
	C923.552063,1431.082642 918.443604,1426.789185 912.821594,1422.853394 
	C908.925476,1433.802246 905.139404,1444.945312 901.005981,1455.958008 
	C891.101318,1482.346558 879.503357,1507.950317 863.550720,1531.296143 
	C859.185974,1537.683716 853.921387,1543.736694 848.052551,1548.753174 
	C838.137634,1557.228149 827.377625,1557.363647 817.754761,1548.594971 
	C810.714233,1542.179443 804.445251,1534.542358 799.267944,1526.523071 
	C779.549927,1495.980469 766.385925,1462.391479 755.027405,1428.037231 
	C754.408569,1426.165527 753.727417,1424.314453 753.049011,1422.379028 
	C748.384705,1426.002075 744.194580,1429.790527 739.497864,1432.783813 
	C731.902405,1437.624756 723.837280,1439.271729 715.232361,1433.905273 
M783.873718,1361.638916 
	C786.287292,1366.006958 789.058044,1370.218018 791.056458,1374.768433 
	C803.827515,1403.848022 816.428467,1433.002197 829.086060,1462.131592 
	C830.230469,1464.765381 831.378723,1467.397705 832.994019,1471.107422 
	C838.659546,1457.708008 843.598999,1445.397583 849.032593,1433.309448 
	C859.523560,1409.969604 869.808716,1386.513794 881.207764,1363.618164 
	C885.264587,1355.469727 891.621948,1348.116089 898.161072,1341.644287 
	C906.049988,1333.836548 915.289185,1335.812622 921.134399,1345.306030 
	C922.876648,1348.135498 924.160950,1351.259766 926.028137,1353.994141 
	C926.942383,1355.332886 928.711365,1356.087891 930.093506,1357.107178 
	C930.774475,1355.721436 931.931641,1354.379272 932.063416,1352.943115 
	C933.521179,1337.053223 935.836182,1321.155640 935.942139,1305.246948 
	C936.140442,1275.493530 927.235657,1248.454102 907.413391,1225.768677 
	C904.111877,1221.990356 899.083130,1217.971069 894.437683,1217.392212 
	C854.961243,1212.472046 815.387146,1212.729126 775.785339,1216.512695 
	C767.558716,1217.298462 761.351929,1220.824707 757.091553,1227.330566 
	C750.736145,1237.035400 743.789062,1246.648804 739.327576,1257.241943 
	C726.006104,1288.871582 728.452515,1321.726440 734.075317,1354.570923 
	C734.234680,1355.501709 735.205078,1356.850708 735.965820,1356.975342 
	C736.852356,1357.120483 738.312927,1356.388916 738.844788,1355.586914 
	C740.585083,1352.963013 742.034668,1350.144287 743.563965,1347.382690 
	C750.437500,1334.970825 760.232422,1333.370239 770.095398,1343.687256 
	C775.112488,1348.935303 779.051819,1355.213745 783.873718,1361.638916 
z"/>
<path fill="#4A1F60" opacity="1.000000" stroke="none" 
	d="
M893.130859,457.866638 
	C935.350952,483.506165 956.266418,520.756165 954.863770,569.772217 
	C953.280518,625.098694 908.868042,674.464294 854.029724,682.887634 
	C788.973267,692.880493 729.587341,652.321716 715.551758,588.311462 
	C700.856873,521.294495 747.877563,453.492249 815.638428,443.860046 
	C842.918152,439.982178 868.643555,444.379761 893.130859,457.866638 
M772.221436,575.052185 
	C779.635620,606.480530 803.638367,626.231262 834.339111,626.166077 
	C861.273376,626.108887 884.998230,609.068298 893.584351,583.612488 
	C902.164368,558.174866 893.723694,530.289307 872.430481,513.726013 
	C851.445068,497.402130 821.532471,495.995056 799.528137,511.051666 
	C777.354614,526.224060 768.570435,547.650330 772.221436,575.052185 
z"/>
<path fill="#4A1F60" opacity="1.000000" stroke="none" 
	d="
M1059.077148,829.205139 
	C1059.627441,827.071472 1060.118408,825.336731 1060.769653,823.035278 
	C1062.158203,823.646790 1063.500122,823.889832 1064.349121,824.669556 
	C1069.002563,828.943359 1073.750977,833.145996 1078.073242,837.742981 
	C1100.995483,862.122131 1124.126709,886.318420 1146.489624,911.203308 
	C1155.785400,921.547363 1163.628418,933.251953 1171.606567,944.704041 
	C1176.331055,951.485535 1178.225098,959.346497 1178.248169,967.832947 
	C1178.312622,991.480286 1178.813721,1015.126709 1179.171265,1038.772949 
	C1179.423096,1055.422485 1179.724365,1072.071167 1179.996582,1088.720215 
	C1180.023315,1090.349121 1180.000244,1091.978760 1180.000244,1094.926758 
	C1128.453369,1061.975220 1075.871094,1033.050659 1018.636719,1012.250061 
	C1032.103882,951.336975 1045.560791,890.470520 1059.077148,829.205139 
z"/>
<path fill="#4A1F60" opacity="1.000000" stroke="none" 
	d="
M648.763428,1011.536011 
	C591.762634,1032.403442 539.752014,1062.244019 487.999664,1094.498047 
	C487.999664,1090.653687 488.035034,1087.602295 487.994171,1084.552002 
	C487.614929,1056.248169 487.022919,1027.944946 486.935669,999.640259 
	C486.902405,988.846436 487.889893,978.040283 488.642273,967.255737 
	C489.565399,954.023132 494.658752,942.276123 503.150269,932.311951 
	C521.395752,910.902283 539.622620,889.447937 558.671082,868.761353 
	C571.840210,854.459656 586.358154,841.398499 600.319580,827.830505 
	C601.414795,826.766174 602.873413,826.075745 604.933594,824.695190 
	C606.675110,833.890259 608.263367,842.161133 609.806091,850.440491 
	C619.776184,903.944580 632.197754,956.846619 648.634949,1008.765015 
	C648.881042,1009.542236 648.883728,1010.396484 648.763428,1011.536011 
z"/>
<path fill="#4A1E60" opacity="1.000000" stroke="none" 
	d="
M783.676025,1361.332642 
	C779.051819,1355.213745 775.112488,1348.935303 770.095398,1343.687256 
	C760.232422,1333.370239 750.437500,1334.970825 743.563965,1347.382690 
	C742.034668,1350.144287 740.585083,1352.963013 738.844788,1355.586914 
	C738.312927,1356.388916 736.852356,1357.120483 735.965820,1356.975342 
	C735.205078,1356.850708 734.234680,1355.501709 734.075317,1354.570923 
	C728.452515,1321.726440 726.006104,1288.871582 739.327576,1257.241943 
	C743.789062,1246.648804 750.736145,1237.035400 757.091553,1227.330566 
	C761.351929,1220.824707 767.558716,1217.298462 775.785339,1216.512695 
	C815.387146,1212.729126 854.961243,1212.472046 894.437683,1217.392212 
	C899.083130,1217.971069 904.111877,1221.990356 907.413391,1225.768677 
	C927.235657,1248.454102 936.140442,1275.493530 935.942139,1305.246948 
	C935.836182,1321.155640 933.521179,1337.053223 932.063416,1352.943115 
	C931.931641,1354.379272 930.774475,1355.721436 930.093506,1357.107178 
	C928.711365,1356.087891 926.942383,1355.332886 926.028137,1353.994141 
	C924.160950,1351.259766 922.876648,1348.135498 921.134399,1345.306030 
	C915.289185,1335.812622 906.049988,1333.836548 898.161072,1341.644287 
	C891.621948,1348.116089 885.264587,1355.469727 881.207764,1363.618164 
	C869.808716,1386.513794 859.523560,1409.969604 849.032593,1433.309448 
	C843.598999,1445.397583 838.659546,1457.708008 832.994019,1471.107422 
	C831.378723,1467.397705 830.230469,1464.765381 829.086060,1462.131592 
	C816.428467,1433.002197 803.827515,1403.848022 791.056458,1374.768433 
	C789.058044,1370.218018 786.287292,1366.006958 783.676025,1361.332642 
z"/>
<path fill="#BEFE00" opacity="1.000000" stroke="none" 
	d="
M772.153442,574.628418 
	C768.570435,547.650330 777.354614,526.224060 799.528137,511.051666 
	C821.532471,495.995056 851.445068,497.402130 872.430481,513.726013 
	C893.723694,530.289307 902.164368,558.174866 893.584351,583.612488 
	C884.998230,609.068298 861.273376,626.108887 834.339111,626.166077 
	C803.638367,626.231262 779.635620,606.480530 772.153442,574.628418 
z"/>
</svg>